<svg width="20" height="20" viewBox="0 0 20 20" fill="none" xmlns="http://www.w3.org/2000/svg">
<g clip-path="url(#clip0_26_133)">
<path d="M19.1949 6.07007L16.8359 8.42207C16.3669 13.8831 11.7579 18.1251 6.24992 18.1251C5.11692 18.1251 4.17992 17.9451 3.46892 17.5941C2.89792 17.3051 2.66392 17.0001 2.60192 16.9061C2.49692 16.7471 2.46992 16.5491 2.52992 16.3681C2.58892 16.1871 2.72792 16.0431 2.90592 15.9771C2.92192 15.9691 4.76592 15.2661 5.96092 13.9141C5.21992 13.3861 4.56792 12.7431 4.03092 12.0081C2.96092 10.5551 1.82792 8.03107 2.50792 4.26607C2.55092 4.03807 2.71592 3.85207 2.93792 3.78107C3.15992 3.70907 3.40392 3.76607 3.56992 3.93007C3.59392 3.96107 6.19492 6.52307 9.37492 7.35207V6.87507C9.38092 5.87407 9.78492 4.91707 10.4969 4.21407C11.2089 3.51007 12.1709 3.11907 13.1719 3.12507C14.4949 3.14407 15.7109 3.85607 16.3749 5.00007H18.7499C19.0019 4.99907 19.2299 5.15007 19.3279 5.38307C19.4199 5.61807 19.3679 5.88607 19.1949 6.07007Z" fill="#B9FBC0"/>
</g>
<defs>
<clipPath id="clip0_26_133">
<rect width="20" height="20" fill="white"/>
</clipPath>
</defs>
</svg>
