<svg width="20" height="21" viewBox="0 0 20 21" fill="none" xmlns="http://www.w3.org/2000/svg">
<g clip-path="url(#clip0_21_372)">
<path d="M7.5 10.3301C7.5 8.94908 8.619 7.83008 10 7.83008C11.381 7.83008 12.5 8.94908 12.5 10.3301C12.5 11.7111 11.381 12.8301 10 12.8301C8.619 12.8301 7.5 11.7111 7.5 10.3301Z" fill="#B9FBC0"/>
<path d="M13.438 2.51855H6.56299C4.14599 2.51855 2.18799 4.47655 2.18799 6.89355V13.7686C2.18799 16.1846 4.14599 18.1436 6.56299 18.1436H13.438C15.854 18.1436 17.813 16.1846 17.813 13.7686V6.89355C17.813 4.47655 15.854 2.51855 13.438 2.51855ZM9.99999 14.0806C7.92899 14.0806 6.24999 12.4016 6.24999 10.3306C6.24999 8.25955 7.92899 6.58055 9.99999 6.58055C12.071 6.58055 13.75 8.25955 13.75 10.3306C13.75 12.4016 12.071 14.0806 9.99999 14.0806ZM14.063 7.20555C13.545 7.20555 13.125 6.78555 13.125 6.26855C13.125 5.75055 13.545 5.33055 14.063 5.33055C14.58 5.33055 15 5.75055 15 6.26855C15 6.78555 14.58 7.20555 14.063 7.20555Z" fill="#B9FBC0"/>
</g>
<defs>
<clipPath id="clip0_21_372">
<rect width="20" height="20" fill="white" transform="translate(0 0.330078)"/>
</clipPath>
</defs>
</svg>
