<svg width="21" height="21" viewBox="0 0 21 21" fill="none" xmlns="http://www.w3.org/2000/svg">
<g clip-path="url(#clip0_10_531)">
<path d="M19.7 6.68701L17.341 9.03901C16.872 14.5 12.263 18.742 6.75504 18.742C5.62204 18.742 4.68504 18.562 3.97404 18.211C3.40304 17.922 3.16904 17.617 3.10704 17.523C3.00204 17.364 2.97504 17.166 3.03504 16.985C3.09404 16.804 3.23304 16.66 3.41104 16.594C3.42704 16.586 5.27104 15.883 6.46604 14.531C5.72504 14.003 5.07304 13.36 4.53604 12.625C3.46604 11.172 2.33304 8.64801 3.01304 4.88301C3.05604 4.65501 3.22104 4.46901 3.44304 4.39801C3.66504 4.32601 3.90904 4.38301 4.07504 4.54701C4.09904 4.57801 6.70004 7.14001 9.88004 7.96901V7.49201C9.88604 6.49101 10.29 5.53401 11.002 4.83101C11.714 4.12701 12.676 3.73601 13.677 3.74201C15 3.76101 16.216 4.47301 16.88 5.61701H19.255C19.507 5.61601 19.735 5.76701 19.833 6.00001C19.925 6.23501 19.873 6.50301 19.7 6.68701Z" fill="#B9FBC0"/>
</g>
<defs>
<clipPath id="clip0_10_531">
<rect width="20" height="20" fill="white" transform="translate(0.505127 0.616943)"/>
</clipPath>
</defs>
</svg>
