<svg width="21" height="21" viewBox="0 0 21 21" fill="none" xmlns="http://www.w3.org/2000/svg">
<g clip-path="url(#clip0_10_526)">
<path d="M8.00513 10.6169C8.00513 9.23594 9.12413 8.11694 10.5051 8.11694C11.8861 8.11694 13.0051 9.23594 13.0051 10.6169C13.0051 11.9979 11.8861 13.1169 10.5051 13.1169C9.12413 13.1169 8.00513 11.9979 8.00513 10.6169Z" fill="#B9FBC0"/>
<path d="M13.9431 2.80493H7.06812C4.65112 2.80493 2.69312 4.76293 2.69312 7.17993V14.0549C2.69312 16.4709 4.65112 18.4299 7.06812 18.4299H13.9431C16.3591 18.4299 18.3181 16.4709 18.3181 14.0549V7.17993C18.3181 4.76293 16.3591 2.80493 13.9431 2.80493ZM10.5051 14.3669C8.43412 14.3669 6.75512 12.6879 6.75512 10.6169C6.75512 8.54593 8.43412 6.86693 10.5051 6.86693C12.5761 6.86693 14.2551 8.54593 14.2551 10.6169C14.2551 12.6879 12.5761 14.3669 10.5051 14.3669ZM14.5681 7.49193C14.0501 7.49193 13.6301 7.07193 13.6301 6.55493C13.6301 6.03693 14.0501 5.61693 14.5681 5.61693C15.0851 5.61693 15.5051 6.03693 15.5051 6.55493C15.5051 7.07193 15.0851 7.49193 14.5681 7.49193Z" fill="#B9FBC0"/>
</g>
<defs>
<clipPath id="clip0_10_526">
<rect width="20" height="20" fill="white" transform="translate(0.505127 0.616943)"/>
</clipPath>
</defs>
</svg>
