<svg width="663" height="390" viewBox="0 0 663 390" fill="none" xmlns="http://www.w3.org/2000/svg">
<path d="M0 120.657V0H118.529C118.529 66.6297 65.4549 120.657 0 120.657Z" fill="#5A569B" fill-opacity="0.27"/>
<path d="M0 253.917V133.26H118.529C118.529 199.89 65.4549 253.917 0 253.917Z" fill="#5A569B" fill-opacity="0.27"/>
<path d="M0 389.642V268.985H118.529C118.529 335.615 65.4549 389.642 0 389.642Z" fill="#5A569B" fill-opacity="0.27"/>
<path d="M134.139 253.917V133.26H252.669C252.723 199.89 199.648 253.917 134.139 253.917Z" fill="#5A569B" fill-opacity="0.27"/>
<path d="M134.139 389.642V268.985H252.669C252.723 335.615 199.648 389.642 134.139 389.642Z" fill="#5A569B" fill-opacity="0.27"/>
<path d="M271.185 120.657V0.000366211H389.714C389.714 66.6301 336.64 120.657 271.185 120.657Z" fill="#5A569B" fill-opacity="0.27"/>
<path d="M271.185 253.917V133.26H389.714C389.714 199.89 336.64 253.917 271.185 253.917Z" fill="#5A569B" fill-opacity="0.27"/>
<path d="M271.185 389.642V268.985H389.714C389.714 335.615 336.64 389.642 271.185 389.642Z" fill="#5A569B" fill-opacity="0.27"/>
<path d="M406.402 120.657V0.000366211H524.985C524.985 66.6301 471.911 120.657 406.402 120.657Z" fill="#5A569B" fill-opacity="0.27"/>
<path d="M406.402 253.917V133.26H524.985C524.985 199.89 471.911 253.917 406.402 253.917Z" fill="#5A569B" fill-opacity="0.27"/>
<path d="M544.471 120.657V0.000366211H663C663.054 66.6301 609.98 120.657 544.471 120.657Z" fill="#5A569B" fill-opacity="0.27"/>
<path d="M544.471 253.917V133.26H663C663.054 199.89 609.98 253.917 544.471 253.917Z" fill="#5A569B" fill-opacity="0.27"/>
<path d="M544.471 389.642V268.985H663C663.054 335.615 609.98 389.642 544.471 389.642Z" fill="#5A569B" fill-opacity="0.27"/>
<path d="M190.928 116.274C221.28 116.274 245.886 91.2262 245.886 60.3287C245.886 29.4312 221.28 4.38379 190.928 4.38379C160.575 4.38379 135.969 29.4312 135.969 60.3287C135.969 91.2262 160.575 116.274 190.928 116.274Z" fill="#FEC700"/>
<path d="M455.6 282.136L401.826 376.984H509.428L455.6 282.136Z" fill="#4945FC"/>
</svg>
