<svg width="20" height="21" viewBox="0 0 20 21" fill="none" xmlns="http://www.w3.org/2000/svg">
<g clip-path="url(#clip0_21_143)">
<path d="M7.5 10.2002C7.5 8.8192 8.619 7.7002 10 7.7002C11.381 7.7002 12.5 8.8192 12.5 10.2002C12.5 11.5812 11.381 12.7002 10 12.7002C8.619 12.7002 7.5 11.5812 7.5 10.2002Z" fill="#B9FBC0"/>
<path d="M13.438 2.38867H6.56299C4.14599 2.38867 2.18799 4.34667 2.18799 6.76367V13.6387C2.18799 16.0547 4.14599 18.0137 6.56299 18.0137H13.438C15.854 18.0137 17.813 16.0547 17.813 13.6387V6.76367C17.813 4.34667 15.854 2.38867 13.438 2.38867ZM9.99999 13.9507C7.92899 13.9507 6.24999 12.2717 6.24999 10.2007C6.24999 8.12967 7.92899 6.45067 9.99999 6.45067C12.071 6.45067 13.75 8.12967 13.75 10.2007C13.75 12.2717 12.071 13.9507 9.99999 13.9507ZM14.063 7.07567C13.545 7.07567 13.125 6.65567 13.125 6.13867C13.125 5.62067 13.545 5.20067 14.063 5.20067C14.58 5.20067 15 5.62067 15 6.13867C15 6.65567 14.58 7.07567 14.063 7.07567Z" fill="#B9FBC0"/>
</g>
<defs>
<clipPath id="clip0_21_143">
<rect width="20" height="20" fill="white" transform="translate(0 0.200195)"/>
</clipPath>
</defs>
</svg>
