<svg width="20" height="21" viewBox="0 0 20 21" fill="none" xmlns="http://www.w3.org/2000/svg">
<g clip-path="url(#clip0_21_148)">
<path d="M19.195 6.27026L16.836 8.62226C16.367 14.0833 11.758 18.3253 6.25004 18.3253C5.11704 18.3253 4.18004 18.1453 3.46904 17.7943C2.89804 17.5053 2.66404 17.2003 2.60204 17.1063C2.49704 16.9473 2.47004 16.7493 2.53004 16.5683C2.58904 16.3873 2.72804 16.2433 2.90604 16.1773C2.92204 16.1693 4.76604 15.4663 5.96104 14.1143C5.22004 13.5863 4.56804 12.9433 4.03104 12.2083C2.96104 10.7553 1.82804 8.23126 2.50804 4.46626C2.55104 4.23826 2.71604 4.05226 2.93804 3.98126C3.16004 3.90926 3.40404 3.96626 3.57004 4.13026C3.59404 4.16126 6.19504 6.72326 9.37504 7.55226V7.07526C9.38104 6.07426 9.78504 5.11726 10.497 4.41426C11.209 3.71026 12.171 3.31926 13.172 3.32526C14.495 3.34426 15.711 4.05626 16.375 5.20026H18.75C19.002 5.19926 19.23 5.35026 19.328 5.58326C19.42 5.81826 19.368 6.08626 19.195 6.27026Z" fill="#B9FBC0"/>
</g>
<defs>
<clipPath id="clip0_21_148">
<rect width="20" height="20" fill="white" transform="translate(0 0.200195)"/>
</clipPath>
</defs>
</svg>
