<svg width="30" height="20" viewBox="0 0 30 20" fill="none" xmlns="http://www.w3.org/2000/svg">
<path fill-rule="evenodd" clip-rule="evenodd" d="M0.303284 10C0.303284 9.72609 0.412095 9.4634 0.60578 9.26971C0.799465 9.07603 1.06216 8.96721 1.33607 8.96721H25.6954L19.195 2.46892C19.0011 2.27499 18.8921 2.01196 18.8921 1.7377C18.8921 1.46345 19.0011 1.20042 19.195 1.00649C19.389 0.812562 19.652 0.703613 19.9262 0.703613C20.2005 0.703613 20.4635 0.812562 20.6574 1.00649L28.9197 9.26879C29.0159 9.36472 29.0922 9.47869 29.1443 9.60417C29.1964 9.72964 29.2232 9.86415 29.2232 10C29.2232 10.1358 29.1964 10.2704 29.1443 10.3958C29.0922 10.5213 29.0159 10.6353 28.9197 10.7312L20.6574 18.9935C20.4635 19.1874 20.2005 19.2964 19.9262 19.2964C19.652 19.2964 19.389 19.1874 19.195 18.9935C19.0011 18.7996 18.8921 18.5366 18.8921 18.2623C18.8921 17.988 19.0011 17.725 19.195 17.5311L25.6954 11.0328H1.33607C1.06216 11.0328 0.799465 10.924 0.60578 10.7303C0.412095 10.5366 0.303284 10.2739 0.303284 10V10Z" fill="white"/>
</svg>
