<svg width="441" height="355" viewBox="0 0 441 355" fill="none" xmlns="http://www.w3.org/2000/svg">
<path d="M253.472 206.075C253.472 242.313 247.96 275.029 239.117 298.61C234.693 310.408 229.474 319.813 223.784 326.231C218.092 332.652 212.103 335.902 206.075 335.902C200.047 335.902 194.058 332.652 188.366 326.231C182.675 319.813 177.457 310.408 173.032 298.61C164.189 275.029 158.678 242.313 158.678 206.075C158.678 169.837 164.189 137.121 173.032 113.54C177.457 101.741 182.675 92.3365 188.366 85.9184C194.058 79.4979 200.047 76.2476 206.075 76.2476C212.103 76.2476 218.092 79.4979 223.784 85.9184C229.474 92.3365 234.693 101.741 239.117 113.54C247.96 137.121 253.472 169.837 253.472 206.075Z" stroke="url(#paint0_linear_1_1047)" stroke-width="4.1215"/>
<path d="M206.074 158.678C242.313 158.678 275.028 164.189 298.61 173.032C310.408 177.457 319.813 182.675 326.231 188.366C332.651 194.058 335.902 200.047 335.902 206.075C335.902 212.103 332.651 218.092 326.231 223.784C319.813 229.474 310.408 234.693 298.61 239.117C275.028 247.96 242.313 253.472 206.074 253.472C169.836 253.472 137.121 247.96 113.539 239.117C101.741 234.693 92.3362 229.474 85.9181 223.784C79.4976 218.092 76.2473 212.103 76.2473 206.075C76.2473 200.047 79.4976 194.058 85.9181 188.366C92.3362 182.675 101.741 177.457 113.539 173.032C137.121 164.189 169.836 158.678 206.074 158.678Z" stroke="url(#paint1_linear_1_1047)" stroke-opacity="0.5" stroke-width="4.1215"/>
<path d="M239.589 172.56C265.213 198.184 284.449 225.215 294.871 248.143C300.085 259.614 303.045 269.954 303.56 278.516C304.074 287.081 302.138 293.614 297.875 297.877C293.613 302.139 287.08 304.076 278.515 303.561C269.953 303.046 259.613 300.086 248.142 294.872C225.214 284.45 198.183 265.214 172.559 239.59C146.935 213.966 127.699 186.935 117.277 164.007C112.063 152.536 109.103 142.196 108.588 133.634C108.073 125.069 110.01 118.536 114.272 114.273C118.534 110.011 125.068 108.075 133.633 108.589C142.195 109.104 152.535 112.064 164.006 117.278C186.934 127.7 213.965 146.936 239.589 172.56Z" stroke="url(#paint2_linear_1_1047)" stroke-opacity="0.5" stroke-width="4.1215"/>
<path d="M114.272 297.877C110.01 293.614 108.073 287.081 108.588 278.516C109.103 269.954 112.063 259.614 117.277 248.143C127.699 225.215 146.935 198.184 172.559 172.56C198.183 146.936 225.214 127.7 248.142 117.278C259.613 112.064 269.953 109.104 278.515 108.589C287.08 108.075 293.613 110.011 297.875 114.273C302.138 118.536 304.074 125.069 303.56 133.634C303.045 142.196 300.085 152.536 294.871 164.007C284.449 186.935 265.213 213.966 239.589 239.59C213.964 265.214 186.934 284.45 164.006 294.872C152.535 300.086 142.195 303.046 133.633 303.561C125.068 304.076 118.534 302.139 114.272 297.877Z" stroke="url(#paint3_linear_1_1047)" stroke-opacity="0.5" stroke-width="4.1215"/>
<defs>
<linearGradient id="paint0_linear_1_1047" x1="206.075" y1="74.1869" x2="206.075" y2="337.963" gradientUnits="userSpaceOnUse">
<stop stop-color="#665EE2"/>
<stop offset="1" stop-color="white" stop-opacity="0"/>
</linearGradient>
<linearGradient id="paint1_linear_1_1047" x1="74.1866" y1="206.075" x2="337.962" y2="206.075" gradientUnits="userSpaceOnUse">
<stop stop-color="#665EE2"/>
<stop offset="1" stop-color="white" stop-opacity="0"/>
</linearGradient>
<linearGradient id="paint2_linear_1_1047" x1="112.815" y1="112.816" x2="299.333" y2="299.334" gradientUnits="userSpaceOnUse">
<stop stop-color="#665EE2"/>
<stop offset="1" stop-color="white" stop-opacity="0"/>
</linearGradient>
<linearGradient id="paint3_linear_1_1047" x1="299.333" y1="112.816" x2="112.815" y2="299.334" gradientUnits="userSpaceOnUse">
<stop stop-color="#665EE2"/>
<stop offset="1" stop-color="#2D22DA" stop-opacity="0"/>
</linearGradient>
</defs>
</svg>
