<svg width="27" height="27" viewBox="0 0 27 27" fill="none" xmlns="http://www.w3.org/2000/svg">
<path fill-rule="evenodd" clip-rule="evenodd" d="M13.5 2.03271C13.7173 2.03271 13.9256 2.11901 14.0792 2.27263C14.2328 2.42624 14.3191 2.63458 14.3191 2.85182V22.1713L19.4729 17.0158C19.6268 16.862 19.8354 16.7756 20.0529 16.7756C20.2704 16.7756 20.479 16.862 20.6328 17.0158C20.7866 17.1696 20.873 17.3782 20.873 17.5957C20.873 17.8133 20.7866 18.0219 20.6328 18.1757L14.0799 24.7285C14.0039 24.8048 13.9135 24.8653 13.814 24.9066C13.7144 24.9479 13.6078 24.9692 13.5 24.9692C13.3923 24.9692 13.2856 24.9479 13.1861 24.9066C13.0866 24.8653 12.9962 24.8048 12.9201 24.7285L6.36724 18.1757C6.21343 18.0219 6.12702 17.8133 6.12702 17.5957C6.12702 17.3782 6.21343 17.1696 6.36724 17.0158C6.52104 16.862 6.72965 16.7756 6.94716 16.7756C7.16468 16.7756 7.37329 16.862 7.52709 17.0158L12.6809 22.1713L12.6809 2.85182C12.6809 2.63458 12.7672 2.42624 12.9208 2.27263C13.0744 2.11901 13.2828 2.03271 13.5 2.03271V2.03271Z" fill="black"/>
</svg>
