<svg width="35" height="35" viewBox="0 0 35 35" fill="none" xmlns="http://www.w3.org/2000/svg">
<path fill-rule="evenodd" clip-rule="evenodd" d="M3.04097 17.5C3.04097 17.2261 3.14978 16.9634 3.34347 16.7697C3.53715 16.576 3.79984 16.4672 4.07376 16.4672H28.4331L21.9327 9.96892C21.7388 9.77499 21.6298 9.51196 21.6298 9.2377C21.6298 8.96345 21.7388 8.70042 21.9327 8.50649C22.1266 8.31256 22.3897 8.20361 22.6639 8.20361C22.9382 8.20361 23.2012 8.31256 23.3951 8.50649L31.6574 16.7688C31.7536 16.8647 31.8299 16.9787 31.882 17.1042C31.934 17.2296 31.9608 17.3642 31.9608 17.5C31.9608 17.6358 31.934 17.7704 31.882 17.8958C31.8299 18.0213 31.7536 18.1353 31.6574 18.2312L23.3951 26.4935C23.2012 26.6874 22.9382 26.7964 22.6639 26.7964C22.3897 26.7964 22.1266 26.6874 21.9327 26.4935C21.7388 26.2996 21.6298 26.0366 21.6298 25.7623C21.6298 25.488 21.7388 25.225 21.9327 25.0311L28.4331 18.5328H4.07376C3.79984 18.5328 3.53715 18.424 3.34347 18.2303C3.14978 18.0366 3.04097 17.7739 3.04097 17.5V17.5Z" fill="#665EE2"/>
</svg>
