<svg width="20" height="20" viewBox="0 0 20 20" fill="none" xmlns="http://www.w3.org/2000/svg">
<g clip-path="url(#clip0_26_128)">
<path d="M7.5 10C7.5 8.619 8.619 7.5 10 7.5C11.381 7.5 12.5 8.619 12.5 10C12.5 11.381 11.381 12.5 10 12.5C8.619 12.5 7.5 11.381 7.5 10Z" fill="#B9FBC0"/>
<path d="M13.438 2.18848H6.56299C4.14599 2.18848 2.18799 4.14648 2.18799 6.56348V13.4385C2.18799 15.8545 4.14599 17.8135 6.56299 17.8135H13.438C15.854 17.8135 17.813 15.8545 17.813 13.4385V6.56348C17.813 4.14648 15.854 2.18848 13.438 2.18848ZM9.99999 13.7505C7.92899 13.7505 6.24999 12.0715 6.24999 10.0005C6.24999 7.92948 7.92899 6.25048 9.99999 6.25048C12.071 6.25048 13.75 7.92948 13.75 10.0005C13.75 12.0715 12.071 13.7505 9.99999 13.7505ZM14.063 6.87548C13.545 6.87548 13.125 6.45548 13.125 5.93848C13.125 5.42048 13.545 5.00048 14.063 5.00048C14.58 5.00048 15 5.42048 15 5.93848C15 6.45548 14.58 6.87548 14.063 6.87548Z" fill="#B9FBC0"/>
</g>
<defs>
<clipPath id="clip0_26_128">
<rect width="20" height="20" fill="white"/>
</clipPath>
</defs>
</svg>
