<svg width="20" height="21" viewBox="0 0 20 21" fill="none" xmlns="http://www.w3.org/2000/svg">
<g clip-path="url(#clip0_21_486)">
<path d="M7.5 10.7305C7.5 9.34947 8.619 8.23047 10 8.23047C11.381 8.23047 12.5 9.34947 12.5 10.7305C12.5 12.1115 11.381 13.2305 10 13.2305C8.619 13.2305 7.5 12.1115 7.5 10.7305Z" fill="#B9FBC0"/>
<path d="M13.438 2.91895H6.56299C4.14599 2.91895 2.18799 4.87695 2.18799 7.29395V14.1689C2.18799 16.5849 4.14599 18.5439 6.56299 18.5439H13.438C15.854 18.5439 17.813 16.5849 17.813 14.1689V7.29395C17.813 4.87695 15.854 2.91895 13.438 2.91895ZM9.99999 14.4809C7.92899 14.4809 6.24999 12.8019 6.24999 10.7309C6.24999 8.65995 7.92899 6.98095 9.99999 6.98095C12.071 6.98095 13.75 8.65995 13.75 10.7309C13.75 12.8019 12.071 14.4809 9.99999 14.4809ZM14.063 7.60595C13.545 7.60595 13.125 7.18595 13.125 6.66895C13.125 6.15095 13.545 5.73095 14.063 5.73095C14.58 5.73095 15 6.15095 15 6.66895C15 7.18595 14.58 7.60595 14.063 7.60595Z" fill="#B9FBC0"/>
</g>
<defs>
<clipPath id="clip0_21_486">
<rect width="20" height="20" fill="white" transform="translate(0 0.730469)"/>
</clipPath>
</defs>
</svg>
