<svg width="20" height="21" viewBox="0 0 20 21" fill="none" xmlns="http://www.w3.org/2000/svg">
<g clip-path="url(#clip0_21_262)">
<path d="M19.195 6.27026L16.836 8.62226C16.367 14.0833 11.758 18.3253 6.25001 18.3253C5.11701 18.3253 4.18001 18.1453 3.46901 17.7943C2.89801 17.5053 2.66401 17.2003 2.60201 17.1063C2.49701 16.9473 2.47001 16.7493 2.53001 16.5683C2.58901 16.3873 2.72801 16.2433 2.90601 16.1773C2.92201 16.1693 4.76601 15.4663 5.96101 14.1143C5.22001 13.5863 4.56801 12.9433 4.03101 12.2083C2.96101 10.7553 1.82801 8.23126 2.50801 4.46626C2.55101 4.23826 2.71601 4.05226 2.93801 3.98126C3.16001 3.90926 3.40401 3.96626 3.57001 4.13026C3.59401 4.16126 6.19501 6.72326 9.37501 7.55226V7.07526C9.38101 6.07426 9.78501 5.11726 10.497 4.41426C11.209 3.71026 12.171 3.31926 13.172 3.32526C14.495 3.34426 15.711 4.05626 16.375 5.20026H18.75C19.002 5.19926 19.23 5.35026 19.328 5.58326C19.42 5.81826 19.368 6.08626 19.195 6.27026Z" fill="#B9FBC0"/>
</g>
<defs>
<clipPath id="clip0_21_262">
<rect width="20" height="20" fill="white" transform="translate(0 0.200195)"/>
</clipPath>
</defs>
</svg>
