<svg width="20" height="21" viewBox="0 0 20 21" fill="none" xmlns="http://www.w3.org/2000/svg">
<g clip-path="url(#clip0_21_491)">
<path d="M19.195 6.80054L16.836 9.15254C16.367 14.6135 11.758 18.8555 6.25004 18.8555C5.11704 18.8555 4.18004 18.6755 3.46904 18.3245C2.89804 18.0355 2.66404 17.7305 2.60204 17.6365C2.49704 17.4775 2.47004 17.2795 2.53004 17.0985C2.58904 16.9175 2.72804 16.7735 2.90604 16.7075C2.92204 16.6995 4.76604 15.9965 5.96104 14.6445C5.22004 14.1165 4.56804 13.4735 4.03104 12.7385C2.96104 11.2855 1.82804 8.76154 2.50804 4.99654C2.55104 4.76854 2.71604 4.58254 2.93804 4.51154C3.16004 4.43954 3.40404 4.49654 3.57004 4.66054C3.59404 4.69154 6.19504 7.25354 9.37504 8.08254V7.60554C9.38104 6.60454 9.78504 5.64754 10.497 4.94454C11.209 4.24054 12.171 3.84954 13.172 3.85554C14.495 3.87454 15.711 4.58654 16.375 5.73054H18.75C19.002 5.72954 19.23 5.88054 19.328 6.11354C19.42 6.34854 19.368 6.61654 19.195 6.80054Z" fill="#B9FBC0"/>
</g>
<defs>
<clipPath id="clip0_21_491">
<rect width="20" height="20" fill="white" transform="translate(0 0.730469)"/>
</clipPath>
</defs>
</svg>
