<svg width="20" height="21" viewBox="0 0 20 21" fill="none" xmlns="http://www.w3.org/2000/svg">
<g clip-path="url(#clip0_21_377)">
<path d="M19.195 6.40015L16.836 8.75215C16.367 14.2131 11.758 18.4551 6.25004 18.4551C5.11704 18.4551 4.18004 18.2751 3.46904 17.9241C2.89804 17.6351 2.66404 17.3301 2.60204 17.2361C2.49704 17.0771 2.47004 16.8791 2.53004 16.6981C2.58904 16.5171 2.72804 16.3731 2.90604 16.3071C2.92204 16.2991 4.76604 15.5961 5.96104 14.2441C5.22004 13.7161 4.56804 13.0731 4.03104 12.3381C2.96104 10.8851 1.82804 8.36115 2.50804 4.59615C2.55104 4.36815 2.71604 4.18215 2.93804 4.11115C3.16004 4.03915 3.40404 4.09615 3.57004 4.26015C3.59404 4.29115 6.19504 6.85315 9.37504 7.68215V7.20515C9.38104 6.20415 9.78504 5.24715 10.497 4.54415C11.209 3.84015 12.171 3.44915 13.172 3.45515C14.495 3.47415 15.711 4.18615 16.375 5.33015H18.75C19.002 5.32915 19.23 5.48015 19.328 5.71315C19.42 5.94815 19.368 6.21615 19.195 6.40015Z" fill="#B9FBC0"/>
</g>
<defs>
<clipPath id="clip0_21_377">
<rect width="20" height="20" fill="white" transform="translate(0 0.330078)"/>
</clipPath>
</defs>
</svg>
