<svg width="25" height="25" viewBox="0 0 25 25" fill="none" xmlns="http://www.w3.org/2000/svg">
<g clip-path="url(#clip0_10_625)">
<path d="M12.97 2.5C7.44998 2.5 2.97998 6.98 2.97998 12.5C2.97998 18.02 7.44998 22.5 12.97 22.5C18.5 22.5 22.98 18.02 22.98 12.5C22.98 6.98 18.5 2.5 12.97 2.5ZM19.9 8.5H16.95C16.637 7.26146 16.1736 6.0659 15.57 4.94C17.3941 5.568 18.9311 6.83172 19.9 8.5ZM12.98 4.54C13.81 5.74 14.46 7.07 14.89 8.5H11.07C11.5 7.07 12.15 5.74 12.98 4.54ZM5.23998 14.5C5.07998 13.86 4.97998 13.19 4.97998 12.5C4.97998 11.81 5.07998 11.14 5.23998 10.5H8.61998C8.53998 11.16 8.47998 11.82 8.47998 12.5C8.47998 13.18 8.53998 13.84 8.61998 14.5H5.23998ZM6.05998 16.5H9.00998C9.32998 17.75 9.78998 18.95 10.39 20.06C8.56395 19.4354 7.02581 18.1708 6.05998 16.5ZM9.00998 8.5H6.05998C7.02581 6.82918 8.56395 5.56457 10.39 4.94C9.78641 6.0659 9.32296 7.26146 9.00998 8.5ZM12.98 20.46C12.15 19.26 11.5 17.93 11.07 16.5H14.89C14.46 17.93 13.81 19.26 12.98 20.46ZM15.32 14.5H10.64C10.55 13.84 10.48 13.18 10.48 12.5C10.48 11.82 10.55 11.15 10.64 10.5H15.32C15.41 11.15 15.48 11.82 15.48 12.5C15.48 13.18 15.41 13.84 15.32 14.5ZM15.57 20.06C16.17 18.95 16.63 17.75 16.95 16.5H19.9C18.9311 18.1683 17.3941 19.432 15.57 20.06ZM17.34 14.5C17.42 13.84 17.48 13.18 17.48 12.5C17.48 11.82 17.42 11.16 17.34 10.5H20.72C20.88 11.14 20.98 11.81 20.98 12.5C20.98 13.19 20.88 13.86 20.72 14.5H17.34Z" fill="#1A202C"/>
</g>
<defs>
<clipPath id="clip0_10_625">
<rect width="24" height="24" fill="white" transform="translate(0.97998 0.5)"/>
</clipPath>
</defs>
</svg>
